<svg width="150" height="50" viewBox="0 0 150 50" fill="none" xmlns="http://www.w3.org/2000/svg">
<rect width="150" height="50" rx="5" fill="#FF5300"/>
<path d="M29.34 18.8C30.7533 18.8 31.8733 19.1533 32.7 19.86C33.54 20.5667 33.96 21.52 33.96 22.72C33.96 23.68 33.7 24.4733 33.18 25.1C32.6733 25.7133 31.9733 26.14 31.08 26.38L34.74 32H32.28L28.92 26.72H26.08V32H23.96V18.8H29.34ZM29.18 24.94C30.8867 24.94 31.74 24.22 31.74 22.78C31.74 21.34 30.8867 20.62 29.18 20.62H26.08V24.94H29.18ZM41.2241 32.2C40.2241 32.2 39.3441 31.9933 38.5841 31.58C37.8374 31.1667 37.2507 30.5733 36.8241 29.8C36.3974 29.0133 36.1841 28.08 36.1841 27C36.1841 25.92 36.3907 24.9933 36.8041 24.22C37.2307 23.4333 37.8107 22.8333 38.5441 22.42C39.2907 22.0067 40.1441 21.8 41.1041 21.8C42.0774 21.8 42.9041 22 43.5841 22.4C44.2641 22.8 44.7841 23.3467 45.1441 24.04C45.5041 24.7333 45.6841 25.52 45.6841 26.4C45.6841 26.6533 45.6774 26.8867 45.6641 27.1C45.6507 27.3133 45.6307 27.4933 45.6041 27.64H38.2841C38.3774 28.5733 38.6774 29.2867 39.1841 29.78C39.7041 30.26 40.3707 30.5 41.1841 30.5C41.8507 30.5 42.3907 30.3733 42.8041 30.12C43.2174 29.8667 43.5441 29.5133 43.7841 29.06L45.4841 29.86C45.1374 30.5933 44.5841 31.1667 43.8241 31.58C43.0774 31.9933 42.2107 32.2 41.2241 32.2ZM41.0641 23.5C40.3307 23.5 39.7241 23.7133 39.2441 24.14C38.7774 24.5667 38.4774 25.1867 38.3441 26H43.6041C43.5507 25.2 43.2974 24.5867 42.8441 24.16C42.3907 23.72 41.7974 23.5 41.0641 23.5ZM54.1666 25.58C54.1666 24.9133 53.9799 24.4 53.6066 24.04C53.2466 23.6667 52.7466 23.48 52.1066 23.48C51.5066 23.48 50.9866 23.62 50.5466 23.9C50.1199 24.18 49.8132 24.6333 49.6266 25.26L47.8266 24.5C48.0799 23.6867 48.5732 23.0333 49.3066 22.54C50.0532 22.0467 51.0132 21.8 52.1866 21.8C52.9732 21.8 53.6732 21.9333 54.2866 22.2C54.9132 22.4533 55.3999 22.8467 55.7466 23.38C56.1066 23.9 56.2866 24.56 56.2866 25.36V29.82C56.2866 30.3133 56.5332 30.56 57.0266 30.56C57.2666 30.56 57.4999 30.5267 57.7266 30.46L57.6066 31.94C57.2999 32.0867 56.9132 32.16 56.4466 32.16C55.9132 32.16 55.4532 32.04 55.0666 31.8C54.6799 31.56 54.4199 31.2 54.2866 30.72C53.9666 31.2133 53.5066 31.5867 52.9066 31.84C52.3066 32.08 51.7066 32.2 51.1066 32.2C50.1599 32.2 49.3732 31.9733 48.7466 31.52C48.1199 31.0667 47.8066 30.3867 47.8066 29.48C47.8066 28.7467 48.0466 28.14 48.5266 27.66C49.0199 27.18 49.7132 26.8467 50.6066 26.66L54.1666 25.96V25.58ZM49.9666 29.32C49.9666 29.6933 50.1066 29.9933 50.3866 30.22C50.6799 30.4333 51.0666 30.54 51.5466 30.54C51.9999 30.54 52.4266 30.4667 52.8266 30.32C53.2266 30.1733 53.5466 29.9333 53.7866 29.6C54.0399 29.2667 54.1666 28.8333 54.1666 28.3V27.46L51.6466 27.98C51.0732 28.0867 50.6466 28.24 50.3666 28.44C50.0999 28.64 49.9666 28.9333 49.9666 29.32ZM63.6133 32.2C62.7866 32.2 62.0399 31.9933 61.3733 31.58C60.7066 31.1667 60.1733 30.5733 59.7733 29.8C59.3866 29.0267 59.1933 28.1 59.1933 27.02C59.1933 25.9 59.3999 24.9533 59.8133 24.18C60.2266 23.4067 60.7799 22.82 61.4733 22.42C62.1666 22.0067 62.9266 21.8 63.7533 21.8C64.4733 21.8 65.0999 21.9733 65.6333 22.32C66.1799 22.6533 66.5866 23.1 66.8533 23.66V17.5H68.9933V32H67.0933L66.9733 30.1C66.7066 30.7667 66.2666 31.2867 65.6533 31.66C65.0399 32.02 64.3599 32.2 63.6133 32.2ZM64.0733 30.48C64.9133 30.48 65.5866 30.16 66.0933 29.52C66.5999 28.88 66.8533 28 66.8533 26.88C66.8533 25.84 66.5999 25.0267 66.0933 24.44C65.5999 23.84 64.9533 23.54 64.1533 23.54C63.2599 23.54 62.5666 23.8467 62.0733 24.46C61.5799 25.0733 61.3333 25.92 61.3333 27C61.3333 28.08 61.5733 28.9333 62.0533 29.56C62.5333 30.1733 63.2066 30.48 64.0733 30.48ZM92.6163 18.8V32H90.6563V24.36L90.7963 20.72H90.7763L86.7563 32H84.9763L80.9563 20.72H80.9363L81.0963 24.36V32H79.1163V18.8H82.2962L84.9563 26.44L85.8763 29.58H85.9163L86.8563 26.44L89.4963 18.8H92.6163ZM100.441 21.8C101.415 21.8 102.275 22.0067 103.021 22.42C103.768 22.8333 104.348 23.4333 104.761 24.22C105.188 24.9933 105.401 25.92 105.401 27C105.401 28.08 105.188 29.0133 104.761 29.8C104.348 30.5733 103.768 31.1667 103.021 31.58C102.275 31.9933 101.415 32.2 100.441 32.2C99.4681 32.2 98.6081 31.9933 97.8614 31.58C97.1147 31.1667 96.5281 30.5733 96.1014 29.8C95.6747 29.0133 95.4614 28.08 95.4614 27C95.4614 25.92 95.6747 24.9933 96.1014 24.22C96.5281 23.4333 97.1147 22.8333 97.8614 22.42C98.6081 22.0067 99.4681 21.8 100.441 21.8ZM100.441 23.48C99.5614 23.48 98.8681 23.7867 98.3614 24.4C97.8547 25 97.6014 25.8667 97.6014 27C97.6014 28.1333 97.8547 29.0067 98.3614 29.62C98.8681 30.22 99.5614 30.52 100.441 30.52C101.321 30.52 102.008 30.22 102.501 29.62C103.008 29.0067 103.261 28.1333 103.261 27C103.261 25.8667 103.008 25 102.501 24.4C102.008 23.7867 101.321 23.48 100.441 23.48ZM108.094 32V22H109.914L110.114 23.8C110.66 22.4667 111.707 21.8 113.254 21.8C113.454 21.8 113.654 21.82 113.854 21.86C114.054 21.8867 114.22 21.9333 114.354 22L114.054 23.88C113.907 23.8267 113.74 23.7867 113.554 23.76C113.38 23.72 113.14 23.7 112.834 23.7C112.407 23.7 111.994 23.8133 111.594 24.04C111.207 24.2533 110.88 24.5867 110.614 25.04C110.36 25.48 110.234 26.0333 110.234 26.7V32H108.094ZM120.521 32.2C119.521 32.2 118.641 31.9933 117.881 31.58C117.134 31.1667 116.548 30.5733 116.121 29.8C115.694 29.0133 115.481 28.08 115.481 27C115.481 25.92 115.688 24.9933 116.101 24.22C116.528 23.4333 117.108 22.8333 117.841 22.42C118.588 22.0067 119.441 21.8 120.401 21.8C121.374 21.8 122.201 22 122.881 22.4C123.561 22.8 124.081 23.3467 124.441 24.04C124.801 24.7333 124.981 25.52 124.981 26.4C124.981 26.6533 124.974 26.8867 124.961 27.1C124.948 27.3133 124.928 27.4933 124.901 27.64H117.581C117.674 28.5733 117.974 29.2867 118.481 29.78C119.001 30.26 119.668 30.5 120.481 30.5C121.148 30.5 121.688 30.3733 122.101 30.12C122.514 29.8667 122.841 29.5133 123.081 29.06L124.781 29.86C124.434 30.5933 123.881 31.1667 123.121 31.58C122.374 31.9933 121.508 32.2 120.521 32.2ZM120.361 23.5C119.628 23.5 119.021 23.7133 118.541 24.14C118.074 24.5667 117.774 25.1867 117.641 26H122.901C122.848 25.2 122.594 24.5867 122.141 24.16C121.688 23.72 121.094 23.5 120.361 23.5Z" fill="white"/>
</svg>
