<svg width="20" height="20" viewBox="0 0 20 20" fill="none" xmlns="http://www.w3.org/2000/svg">
<path d="M11.31 18.4C9.98771 18.6066 8.63532 18.498 7.36293 18.083C6.09054 17.6681 4.9341 16.9586 3.98776 16.0123C3.04141 15.0659 2.3319 13.9095 1.91698 12.6371C1.50206 11.3647 1.39345 10.0123 1.6 8.69C1.07874 7.69851 0.88826 6.56629 1.05641 5.45882C1.22457 4.35135 1.74254 3.32669 2.53461 2.53461C3.32669 1.74254 4.35135 1.22457 5.45882 1.05641C6.56629 0.88826 7.69851 1.07874 8.69 1.6C10.0123 1.39345 11.3647 1.50206 12.6371 1.91698C13.9095 2.3319 15.0659 3.04141 16.0123 3.98776C16.9586 4.9341 17.6681 6.09054 18.083 7.36293C18.498 8.63532 18.6066 9.98771 18.4 11.31C18.9213 12.3015 19.1117 13.4337 18.9436 14.5412C18.7754 15.6487 18.2575 16.6733 17.4654 17.4654C16.6733 18.2575 15.6487 18.7754 14.5412 18.9436C13.4337 19.1117 12.3015 18.9213 11.31 18.4ZM10.052 15.156H10.012C12.884 15.156 14.315 13.77 14.315 11.913C14.315 10.715 13.764 9.44201 11.589 8.955L9.606 8.51501C8.851 8.34301 7.984 8.115 7.984 7.4C7.984 6.685 8.604 6.18701 9.708 6.18701C11.938 6.18701 11.735 7.715 12.839 7.715C13.415 7.715 13.932 7.373 13.932 6.785C13.932 5.415 11.735 4.38501 9.87601 4.38501C7.85501 4.38501 5.703 5.24401 5.703 7.52901C5.703 8.62701 6.097 9.799 8.263 10.342L10.952 11.013C11.768 11.215 11.97 11.672 11.97 12.085C11.97 12.772 11.286 13.443 10.052 13.443C7.635 13.443 7.97401 11.586 6.67801 11.586C6.09801 11.586 5.675 11.984 5.675 12.557C5.675 13.671 7.027 15.155 10.052 15.155V15.156Z" fill="black"/>
</svg>
