<svg width="22" height="18" viewBox="0 0 22 18" fill="none" xmlns="http://www.w3.org/2000/svg">
<path d="M21.162 2.65599C20.3986 2.99368 19.589 3.21546 18.76 3.31399C19.6338 2.79142 20.2877 1.969 20.6 0.999988C19.78 1.48799 18.881 1.82999 17.944 2.01499C17.3146 1.34157 16.4804 0.894951 15.571 0.744572C14.6616 0.594194 13.7279 0.748479 12.9153 1.18344C12.1026 1.6184 11.4564 2.30967 11.0771 3.14978C10.6978 3.98989 10.6068 4.93177 10.818 5.82899C9.15512 5.74564 7.52834 5.31351 6.04329 4.56065C4.55825 3.80779 3.24813 2.75104 2.19801 1.45899C1.8263 2.09744 1.63096 2.82321 1.63201 3.56199C1.63201 5.01199 2.37001 6.29299 3.49201 7.04299C2.82802 7.02208 2.17864 6.84277 1.59801 6.51999V6.57199C1.59821 7.53769 1.93238 8.4736 2.54385 9.22105C3.15533 9.96849 4.00649 10.4815 4.95301 10.673C4.33662 10.84 3.69031 10.8646 3.06301 10.745C3.32987 11.5762 3.85001 12.3032 4.5506 12.8241C5.25118 13.345 6.09714 13.6338 6.97001 13.65C6.10249 14.3313 5.10918 14.835 4.04689 15.1322C2.98459 15.4293 1.87413 15.5142 0.779007 15.382C2.6907 16.6114 4.9161 17.2641 7.18901 17.262C14.882 17.262 19.089 10.889 19.089 5.36199C19.089 5.18199 19.084 4.99999 19.076 4.82199C19.8949 4.23016 20.6016 3.49701 21.163 2.65699L21.162 2.65599Z" fill="black"/>
</svg>
