<svg width="335" height="225" viewBox="0 0 335 225" fill="none" xmlns="http://www.w3.org/2000/svg">
<g clip-path="url(#clip0_147_1)">
<path d="M266.872 99.5724L267.866 91.5812C268.22 88.7412 269.684 86.1583 271.937 84.4006C274.19 82.643 277.047 81.8546 279.88 82.2089C282.713 82.5632 285.289 84.0312 287.042 86.2899C288.795 88.5487 289.582 91.4131 289.228 94.2531L288.234 102.244C288.186 102.626 287.989 102.972 287.687 103.208C287.384 103.444 287.001 103.55 286.62 103.503L268.128 101.19C267.747 101.142 267.402 100.945 267.166 100.642C266.931 100.338 266.825 99.9538 266.872 99.5724Z" fill="#2F2E41"/>
<path d="M275.73 101.957C280.088 101.957 283.622 98.4143 283.622 94.0448C283.622 89.6752 280.088 86.133 275.73 86.133C271.372 86.133 267.838 89.6752 267.838 94.0448C267.838 98.4143 271.372 101.957 275.73 101.957Z" fill="#FFB8B8"/>
<path d="M265.26 91.9045C265.542 89.659 266.701 87.6173 268.482 86.2274C270.264 84.8375 272.523 84.2129 274.763 84.4905L276.357 84.69C278.597 84.9727 280.633 86.1345 282.02 87.9207C283.406 89.7068 284.029 91.9713 283.752 94.2174L283.732 94.3773L280.363 93.9559L279.616 90.5863L278.984 93.7834L277.243 93.5656L276.866 91.8655L276.548 93.4786L265.24 92.0643L265.26 91.9045Z" fill="#2F2E41"/>
<path d="M237.133 122.268C237.374 122.742 237.716 123.158 238.135 123.486C238.554 123.814 239.039 124.046 239.557 124.165C240.075 124.285 240.613 124.289 241.132 124.177C241.652 124.066 242.141 123.841 242.565 123.52L249.733 127.73L253.347 123.986L243.141 118.184C242.555 117.506 241.742 117.067 240.855 116.95C239.968 116.834 239.068 117.047 238.328 117.55C237.587 118.054 237.056 118.812 236.836 119.681C236.616 120.551 236.721 121.471 237.133 122.268Z" fill="#FFB8B8"/>
<path d="M260.625 129.832C255.337 129.832 246.034 127.459 245.519 127.326L245.356 127.284L246.82 119.852L261.031 122.666L268.751 111.767L277.614 110.863L277.366 111.19C277.251 111.342 265.826 126.42 264.048 128.95C263.599 129.588 262.318 129.832 260.625 129.832Z" fill="#3F3D56"/>
<path d="M262.042 157.728L261.83 157.627C261.785 157.605 257.293 155.415 254.967 151.138C252.651 146.882 263.491 128.828 264.249 127.575L264.26 121.841L268.16 111.287L273.133 108.469L268.863 118.456L262.042 157.728Z" fill="#3F3D56"/>
<path d="M257.06 219.353L252.307 219.353L250.046 200.973L257.061 200.974L257.06 219.353Z" fill="#FFB8B8"/>
<path d="M258.272 223.972L242.947 223.971V223.777C242.947 222.191 243.576 220.67 244.694 219.548C245.813 218.427 247.33 217.797 248.912 217.797H248.912L258.272 217.797L258.272 223.972Z" fill="#2F2E41"/>
<path d="M308.11 215.177L303.594 216.66L295.737 199.901L302.402 197.712L308.11 215.177Z" fill="#FFB8B8"/>
<path d="M310.697 219.188L296.134 223.972L296.073 223.787C295.581 222.28 295.706 220.638 296.42 219.223C297.135 217.808 298.381 216.736 299.884 216.242L299.885 216.242L308.779 213.32L310.697 219.188Z" fill="#2F2E41"/>
<path d="M298.908 212.172L285.359 189.495L273.922 165.267L263.629 186.669L259.541 214.387L245.202 214.586L245.259 214.362L267.201 126.95L284.387 129.524L283.604 140.897L284.07 141.561C287.952 147.09 291.966 152.807 289.664 158.969L296.19 178.397L310.637 210.747L298.908 212.172Z" fill="#2F2E41"/>
<path d="M267.987 145.895C265.496 145.895 262.655 143.044 264.129 138.178L264.034 138.108L267.574 122.427C264.484 117.997 268.558 114.341 268.94 114.015L270.884 110.506L279.463 105.051L283.804 141.209L283.739 141.271C280.604 144.278 270.075 145.895 267.987 145.895Z" fill="#FF5300"/>
<path d="M285.556 154.054C285.215 154.059 284.875 154.023 284.543 153.947C284.209 153.863 283.669 153.437 282.834 150.712C279.516 139.881 275.598 107.29 278.444 104.1L278.509 104.027L283.183 104.808C283.571 104.521 285.61 103.094 287.491 103.342C287.878 103.391 288.251 103.519 288.587 103.718C288.924 103.917 289.215 104.183 289.445 104.5L289.477 104.542L290.966 125.777L296.42 150.767L296.289 150.827C295.972 150.971 289.161 154.054 285.556 154.054Z" fill="#3F3D56"/>
<path d="M282.413 145.754C282.944 145.736 283.465 145.602 283.939 145.361C284.413 145.119 284.828 144.777 285.155 144.357C285.483 143.937 285.714 143.451 285.834 142.932C285.954 142.413 285.958 141.874 285.847 141.352L292.689 136.628L290.839 131.76L281.271 138.567C280.411 138.812 279.669 139.365 279.187 140.121C278.706 140.877 278.518 141.783 278.658 142.669C278.799 143.555 279.259 144.358 279.951 144.927C280.643 145.496 281.519 145.79 282.413 145.754Z" fill="#FFB8B8"/>
<path d="M290.431 140.414L284.337 135.933L292.903 124.223L286.33 112.593L289.271 104.162L289.461 104.525C289.549 104.694 298.328 121.46 299.859 124.147C301.453 126.942 290.984 139.74 290.538 140.283L290.431 140.414Z" fill="#3F3D56"/>
<path d="M153.357 193.121L148.17 190.932L144.612 164.866H97.2333L93.3768 190.825L88.7368 193.151C88.5148 193.263 88.3367 193.446 88.2315 193.671C88.1263 193.897 88.1001 194.151 88.1572 194.393C88.2142 194.635 88.3511 194.851 88.5458 195.006C88.7404 195.16 88.9814 195.244 89.2296 195.244H152.929C153.184 195.244 153.43 195.156 153.627 194.994C153.824 194.833 153.959 194.608 154.009 194.358C154.06 194.108 154.022 193.848 153.903 193.623C153.784 193.397 153.591 193.22 153.357 193.121Z" fill="#E6E6E6"/>
<path d="M237.552 168.334H4.81307C3.59195 168.331 2.42178 167.843 1.55929 166.976C0.696796 166.11 0.212411 164.935 0.212402 163.711V130.808H242.153V163.711C242.153 164.935 241.669 166.11 240.806 166.976C239.944 167.843 238.773 168.331 237.552 168.334Z" fill="#CCCCCC"/>
<path d="M242.396 146.359H0V5.57266C0.0017027 4.09519 0.587894 2.67872 1.62998 1.63401C2.67206 0.589298 4.08493 0.00165698 5.55863 0H236.838C238.311 0.00165318 239.724 0.589294 240.766 1.634C241.808 2.67872 242.395 4.09518 242.396 5.57266V146.359Z" fill="#3F3D56"/>
<path d="M227.919 136.14H14.4774C13.3413 136.139 12.2521 135.686 11.4487 134.881C10.6453 134.075 10.1934 132.983 10.1921 131.844V14.5144C10.1934 13.3754 10.6453 12.2833 11.4487 11.4779C12.252 10.6724 13.3413 10.2193 14.4774 10.218H227.919C229.055 10.2193 230.144 10.6724 230.948 11.4779C231.751 12.2833 232.203 13.3754 232.204 14.5144V131.844C232.203 132.983 231.751 134.075 230.948 134.881C230.144 135.686 229.055 136.139 227.919 136.14Z" fill="white"/>
<path d="M181.058 195.516H61.1221C60.9992 195.518 60.879 195.48 60.78 195.407C60.6811 195.334 60.609 195.23 60.5751 195.112C60.5539 195.031 60.5514 194.947 60.5679 194.865C60.5843 194.784 60.6192 194.707 60.67 194.641C60.7207 194.575 60.7858 194.521 60.8604 194.484C60.935 194.447 61.017 194.428 61.1001 194.428H181.013C181.143 194.424 181.27 194.463 181.375 194.54C181.479 194.618 181.554 194.728 181.588 194.854C181.605 194.933 181.605 195.016 181.587 195.095C181.568 195.174 181.532 195.249 181.481 195.312C181.43 195.376 181.366 195.427 181.293 195.462C181.219 195.498 181.139 195.516 181.058 195.516Z" fill="#CCCCCC"/>
<path d="M225.64 29.1867H174.106V68.6584H225.64V29.1867Z" fill="#F2F2F2"/>
<path d="M223.08 31.148H176.667V66.6971H223.08V31.148Z" fill="white"/>
<path d="M200.688 57.5166C200.694 57.5167 200.7 57.5166 200.707 57.5162C203.848 57.3515 206.81 55.9932 208.988 53.7176C211.167 51.442 212.399 48.4199 212.434 45.266C212.469 42.1121 211.305 39.0631 209.178 36.7391C207.051 34.4151 204.121 32.9906 200.983 32.7553C200.945 32.7522 200.906 32.7573 200.869 32.77C200.832 32.7828 200.798 32.8031 200.77 32.8295C200.741 32.8556 200.718 32.8872 200.703 32.9225C200.687 32.9578 200.679 32.996 200.679 33.0346L200.408 57.2301C200.407 57.3053 200.436 57.3777 200.489 57.4314C200.541 57.4851 200.613 57.5158 200.688 57.5166Z" fill="#3F3D56"/>
<path d="M190.983 36.7562C191.08 36.7574 191.172 36.7967 191.239 36.8657L199.547 45.3841C199.581 45.4181 199.607 45.4585 199.625 45.5029C199.642 45.5472 199.651 45.5947 199.651 45.6424L199.521 57.2201C199.521 57.2698 199.51 57.3188 199.49 57.3642C199.47 57.4096 199.44 57.4503 199.404 57.4837C199.367 57.5176 199.324 57.5435 199.277 57.5599C199.229 57.5764 199.179 57.5829 199.13 57.5791C196.82 57.4058 194.604 56.5901 192.731 55.2236C190.858 53.8571 189.402 51.994 188.527 49.8437C187.652 47.6933 187.392 45.3409 187.777 43.0508C188.162 40.7607 189.177 38.6237 190.706 36.8798C190.74 36.8422 190.78 36.8118 190.825 36.7906C190.871 36.7693 190.92 36.7577 190.97 36.7563C190.974 36.7562 190.979 36.7561 190.983 36.7562Z" fill="#E6E6E6"/>
<path d="M199.432 32.6564C199.524 32.6575 199.613 32.6939 199.68 32.7582C199.716 32.7925 199.745 32.8339 199.764 32.8798C199.783 32.9256 199.793 32.975 199.792 33.0247L199.675 43.4708C199.674 43.5427 199.652 43.6128 199.612 43.6721C199.571 43.7315 199.514 43.7775 199.447 43.8042C199.381 43.831 199.308 43.8374 199.238 43.8226C199.167 43.8078 199.103 43.7724 199.053 43.721L191.803 36.2877C191.768 36.2523 191.742 36.2103 191.724 36.1642C191.706 36.1181 191.698 36.0689 191.7 36.0195C191.702 35.9701 191.713 35.9216 191.734 35.877C191.756 35.8323 191.785 35.7924 191.822 35.7597C193.931 33.899 196.604 32.8058 199.409 32.6568C199.417 32.6565 199.424 32.6563 199.432 32.6564Z" fill="#FF5300"/>
<path d="M195.697 62.5339C195.692 62.9746 195.557 63.4039 195.308 63.7676C195.06 64.1313 194.71 64.413 194.302 64.577C193.894 64.7411 193.446 64.7802 193.016 64.6894C192.586 64.5986 192.192 64.3819 191.885 64.0668C191.578 63.7517 191.371 63.3523 191.29 62.9191C191.209 62.486 191.258 62.0384 191.431 61.6332C191.603 61.2279 191.892 60.8832 192.26 60.6424C192.628 60.4017 193.06 60.2759 193.499 60.2808C194.088 60.2881 194.651 60.5294 195.063 60.9518C195.475 61.3742 195.703 61.9432 195.697 62.5339Z" fill="#FF5300"/>
<path d="M202.047 62.6053C202.042 63.046 201.907 63.4753 201.658 63.839C201.41 64.2026 201.06 64.4843 200.652 64.6484C200.244 64.8125 199.796 64.8516 199.366 64.7608C198.936 64.67 198.542 64.4533 198.235 64.1382C197.928 63.8231 197.72 63.4237 197.64 62.9905C197.559 62.5573 197.608 62.1098 197.78 61.7046C197.953 61.2993 198.242 60.9545 198.61 60.7138C198.978 60.4731 199.41 60.3472 199.849 60.3522C200.438 60.3595 201.001 60.6008 201.413 61.0232C201.825 61.4456 202.053 62.0145 202.047 62.6053Z" fill="#3F3D56"/>
<path d="M208.396 62.6766C208.392 63.1173 208.256 63.5467 208.008 63.9103C207.76 64.274 207.409 64.5557 207.001 64.7198C206.594 64.8838 206.146 64.9229 205.716 64.8321C205.286 64.7413 204.892 64.5246 204.585 64.2095C204.278 63.8944 204.07 63.495 203.989 63.0619C203.908 62.6287 203.957 62.1812 204.13 61.7759C204.303 61.3707 204.592 61.0259 204.96 60.7852C205.328 60.5444 205.759 60.4186 206.199 60.4235C206.788 60.4308 207.35 60.6721 207.762 61.0945C208.174 61.5169 208.402 62.0859 208.396 62.6766Z" fill="#E6E6E6"/>
<path d="M225.098 74.8705H173.563V114.342H225.098V74.8705Z" fill="#F2F2F2"/>
<path d="M222.537 76.8318H176.124V112.381H222.537V76.8318Z" fill="white"/>
<path d="M183.999 88.5157C185.063 88.5157 185.926 87.6507 185.926 86.5837C185.926 85.5167 185.063 84.6517 183.999 84.6517C182.935 84.6517 182.072 85.5167 182.072 86.5837C182.072 87.6507 182.935 88.5157 183.999 88.5157Z" fill="#3F3D56"/>
<path d="M214.962 85.0802C215.134 85.08 215.304 85.1136 215.463 85.1794C215.622 85.2451 215.766 85.3415 215.888 85.4632C216.009 85.5849 216.106 85.7295 216.172 85.8886C216.238 86.0477 216.271 86.2183 216.271 86.3905C216.271 86.5628 216.238 86.7333 216.172 86.8924C216.106 87.0516 216.009 87.1961 215.888 87.3178C215.766 87.4395 215.622 87.536 215.463 87.6017C215.304 87.6674 215.134 87.7011 214.962 87.7008H194.694C194.348 87.7008 194.015 87.5627 193.77 87.317C193.525 87.0713 193.387 86.738 193.387 86.3905C193.387 86.043 193.525 85.7097 193.77 85.464C194.015 85.2183 194.348 85.0802 194.694 85.0802H214.962ZM214.962 84.7593H194.694C194.481 84.759 194.269 84.801 194.071 84.8828C193.873 84.9646 193.694 85.0847 193.542 85.2362C193.391 85.3877 193.271 85.5677 193.189 85.7657C193.107 85.9638 193.065 86.1761 193.065 86.3905C193.065 86.6049 193.107 86.8172 193.189 87.0153C193.271 87.2134 193.391 87.3933 193.542 87.5448C193.694 87.6963 193.873 87.8164 194.071 87.8982C194.269 87.9801 194.481 88.022 194.694 88.0217H214.962C215.176 88.022 215.388 87.9801 215.586 87.8982C215.783 87.8164 215.963 87.6963 216.114 87.5448C216.266 87.3933 216.386 87.2134 216.468 87.0153C216.55 86.8172 216.592 86.6049 216.592 86.3905C216.592 86.1761 216.55 85.9638 216.468 85.7657C216.386 85.5677 216.266 85.3877 216.114 85.2362C215.963 85.0847 215.783 84.9646 215.586 84.8828C215.388 84.801 215.176 84.759 214.962 84.7593Z" fill="#3F3D56"/>
<path d="M206.965 88.0217H191.707C191.276 88.0217 190.862 87.8498 190.557 87.5439C190.252 87.238 190.08 86.8231 190.08 86.3905C190.08 85.9579 190.252 85.543 190.557 85.2371C190.862 84.9312 191.276 84.7593 191.707 84.7593H206.965C207.396 84.7593 207.81 84.9312 208.115 85.2371C208.42 85.543 208.592 85.9579 208.592 86.3905C208.592 86.8231 208.42 87.238 208.115 87.5439C207.81 87.8498 207.396 88.0217 206.965 88.0217Z" fill="#FF5300"/>
<path d="M183.999 96.5384C185.063 96.5384 185.926 95.6734 185.926 94.6064C185.926 93.5394 185.063 92.6744 183.999 92.6744C182.935 92.6744 182.072 93.5394 182.072 94.6064C182.072 95.6734 182.935 96.5384 183.999 96.5384Z" fill="#3F3D56"/>
<path d="M214.962 93.103C215.134 93.1027 215.304 93.1364 215.463 93.2021C215.622 93.2678 215.766 93.3643 215.888 93.486C216.01 93.6077 216.106 93.7522 216.172 93.9113C216.238 94.0704 216.272 94.241 216.272 94.4132C216.272 94.5855 216.238 94.756 216.172 94.9151C216.106 95.0742 216.01 95.2188 215.888 95.3405C215.766 95.4622 215.622 95.5586 215.463 95.6244C215.304 95.6901 215.134 95.7238 214.962 95.7235H194.694C194.348 95.7235 194.015 95.5854 193.77 95.3397C193.525 95.094 193.387 94.7607 193.387 94.4132C193.387 94.0657 193.525 93.7324 193.77 93.4867C194.015 93.241 194.348 93.103 194.694 93.103H214.962ZM214.962 92.782H194.694C194.263 92.782 193.849 92.9539 193.544 93.2598C193.239 93.5657 193.067 93.9806 193.067 94.4132C193.067 94.8458 193.239 95.2607 193.544 95.5666C193.849 95.8725 194.263 96.0444 194.694 96.0444H214.962C215.394 96.0444 215.808 95.8725 216.113 95.5666C216.418 95.2607 216.589 94.8458 216.589 94.4132C216.589 93.9806 216.418 93.5657 216.113 93.2598C215.808 92.9539 215.394 92.782 214.962 92.782Z" fill="#3F3D56"/>
<path d="M212.727 96.0444H191.707C191.276 96.0444 190.862 95.8725 190.557 95.5666C190.252 95.2607 190.08 94.8458 190.08 94.4132C190.08 93.9806 190.252 93.5657 190.557 93.2598C190.862 92.9539 191.276 92.782 191.707 92.782H212.727C213.158 92.782 213.572 92.9539 213.877 93.2598C214.182 93.5657 214.354 93.9806 214.354 94.4132C214.354 94.8458 214.182 95.2607 213.877 95.5666C213.572 95.8725 213.158 96.0444 212.727 96.0444Z" fill="#FF5300"/>
<path d="M183.999 104.561C185.063 104.561 185.926 103.696 185.926 102.629C185.926 101.562 185.063 100.697 183.999 100.697C182.935 100.697 182.072 101.562 182.072 102.629C182.072 103.696 182.935 104.561 183.999 104.561Z" fill="#3F3D56"/>
<path d="M214.962 101.126C215.134 101.125 215.304 101.159 215.463 101.225C215.622 101.29 215.766 101.387 215.888 101.509C216.01 101.63 216.106 101.775 216.172 101.934C216.238 102.093 216.272 102.264 216.272 102.436C216.272 102.608 216.238 102.779 216.172 102.938C216.106 103.097 216.01 103.241 215.888 103.363C215.766 103.485 215.622 103.581 215.463 103.647C215.304 103.713 215.134 103.746 214.962 103.746H194.694C194.348 103.746 194.015 103.608 193.77 103.362C193.525 103.117 193.387 102.783 193.387 102.436C193.387 102.088 193.525 101.755 193.77 101.509C194.015 101.264 194.348 101.126 194.694 101.126H214.962ZM214.962 100.805H194.694C194.263 100.805 193.849 100.977 193.544 101.283C193.239 101.588 193.067 102.003 193.067 102.436C193.067 102.869 193.239 103.283 193.544 103.589C193.849 103.895 194.263 104.067 194.694 104.067H214.962C215.394 104.067 215.808 103.895 216.113 103.589C216.418 103.283 216.589 102.869 216.589 102.436C216.589 102.003 216.418 101.588 216.113 101.283C215.808 100.977 215.394 100.805 214.962 100.805Z" fill="#3F3D56"/>
<path d="M200.243 104.067H191.707C191.493 104.067 191.282 104.025 191.084 103.944C190.886 103.862 190.707 103.742 190.555 103.59C190.404 103.439 190.284 103.259 190.202 103.061C190.12 102.863 190.078 102.65 190.078 102.436C190.078 102.222 190.12 102.009 190.202 101.811C190.284 101.613 190.404 101.433 190.555 101.282C190.707 101.13 190.886 101.01 191.084 100.928C191.282 100.846 191.493 100.804 191.707 100.805H200.243C200.674 100.805 201.087 100.978 201.392 101.283C201.696 101.589 201.868 102.004 201.868 102.436C201.868 102.868 201.696 103.283 201.392 103.588C201.087 103.894 200.674 104.066 200.243 104.067Z" fill="#FF5300"/>
<path d="M162.172 36.1702H18.1934V110.148H162.172V36.1702Z" fill="#F2F2F2"/>
<path d="M157.372 39.8461H22.9927V106.472H157.372V39.8461Z" fill="white"/>
<path d="M140.706 96.3074H42.7463C42.665 96.3074 42.587 96.275 42.5295 96.2174C42.472 96.1598 42.4397 96.0816 42.4397 96.0001V48.9277C42.4397 48.8461 42.472 48.768 42.5295 48.7103C42.587 48.6527 42.665 48.6203 42.7463 48.6203C42.8276 48.6203 42.9056 48.6527 42.963 48.7103C43.0205 48.768 43.0528 48.8461 43.0528 48.9277V95.6927H140.706C140.788 95.6927 140.866 95.7251 140.923 95.7827C140.981 95.8404 141.013 95.9186 141.013 96.0001C141.013 96.0816 140.981 96.1598 140.923 96.2174C140.866 96.275 140.788 96.3074 140.706 96.3074Z" fill="#3F3D56"/>
<path d="M63.6761 92.9266H54.7663C54.525 92.9263 54.2937 92.8301 54.1231 92.6591C53.9525 92.488 53.8565 92.2561 53.8562 92.0142V79.7005C53.8565 79.4586 53.9525 79.2267 54.1231 79.0557C54.2937 78.8847 54.525 78.7885 54.7663 78.7882H63.6761C63.9174 78.7885 64.1487 78.8847 64.3193 79.0557C64.4899 79.2267 64.5859 79.4586 64.5862 79.7005V92.0142C64.5859 92.2561 64.4899 92.488 64.3193 92.6591C64.1487 92.8301 63.9174 92.9263 63.6761 92.9266Z" fill="#FF5300"/>
<path d="M79.9244 92.9265H71.0145C70.7733 92.9263 70.542 92.8301 70.3714 92.659C70.2008 92.488 70.1048 92.2561 70.1045 92.0142V68.021C70.1048 67.7791 70.2008 67.5472 70.3714 67.3762C70.542 67.2052 70.7733 67.109 71.0145 67.1087H79.9244C80.1657 67.109 80.397 67.2052 80.5676 67.3762C80.7382 67.5472 80.8342 67.7791 80.8345 68.021V92.0142C80.8342 92.2561 80.7382 92.488 80.5676 92.659C80.397 92.8301 80.1657 92.9263 79.9244 92.9265Z" fill="#FF5300"/>
<path d="M96.1725 92.9266H87.2626C87.0213 92.9263 86.79 92.8301 86.6194 92.659C86.4488 92.488 86.3528 92.2561 86.3525 92.0142V79.7005C86.3528 79.4586 86.4488 79.2267 86.6194 79.0557C86.79 78.8847 87.0213 78.7885 87.2626 78.7882H96.1725C96.4137 78.7885 96.645 78.8847 96.8157 79.0557C96.9863 79.2267 97.0822 79.4586 97.0825 79.7005V92.0142C97.0822 92.2561 96.9863 92.488 96.8157 92.6591C96.645 92.8301 96.4137 92.9263 96.1725 92.9266Z" fill="#FF5300"/>
<path d="M112.421 92.9265H103.511C103.275 92.9316 103.047 92.8428 102.876 92.6795C102.706 92.5163 102.607 92.2919 102.601 92.0555V63.3694C102.607 63.133 102.706 62.9086 102.876 62.7454C103.047 62.5821 103.275 62.4933 103.511 62.4984H112.421C112.657 62.4933 112.885 62.5821 113.055 62.7454C113.226 62.9086 113.325 63.133 113.331 63.3694V92.0555C113.325 92.2919 113.226 92.5163 113.055 92.6795C112.885 92.8428 112.657 92.9316 112.421 92.9265Z" fill="#FF5300"/>
<path d="M128.669 92.9265H119.759C119.518 92.9263 119.287 92.8301 119.116 92.659C118.945 92.488 118.849 92.2561 118.849 92.0142V55.1121C118.849 54.8703 118.945 54.6384 119.116 54.4673C119.287 54.2963 119.518 54.2001 119.759 54.1998H128.669C128.91 54.2001 129.142 54.2963 129.312 54.4673C129.483 54.6384 129.579 54.8703 129.579 55.1121V92.0142C129.579 92.2561 129.483 92.488 129.312 92.659C129.142 92.8301 128.91 92.9263 128.669 92.9265Z" fill="#FF5300"/>
<path d="M59.221 75.0999C60.2369 75.0999 61.0605 74.2743 61.0605 73.2558C61.0605 72.2373 60.2369 71.4117 59.221 71.4117C58.2051 71.4117 57.3816 72.2373 57.3816 73.2558C57.3816 74.2743 58.2051 75.0999 59.221 75.0999Z" fill="#3F3D56"/>
<path d="M75.4693 63.1131C76.4852 63.1131 77.3087 62.2875 77.3087 61.269C77.3087 60.2505 76.4852 59.4248 75.4693 59.4248C74.4534 59.4248 73.6299 60.2505 73.6299 61.269C73.6299 62.2875 74.4534 63.1131 75.4693 63.1131Z" fill="#3F3D56"/>
<path d="M91.7176 75.0999C92.7335 75.0999 93.557 74.2743 93.557 73.2558C93.557 72.2373 92.7335 71.4117 91.7176 71.4117C90.7017 71.4117 89.8782 72.2373 89.8782 73.2558C89.8782 74.2743 90.7017 75.0999 91.7176 75.0999Z" fill="#3F3D56"/>
<path d="M107.966 57.2734C108.982 57.2734 109.805 56.4477 109.805 55.4292C109.805 54.4108 108.982 53.5851 107.966 53.5851C106.95 53.5851 106.126 54.4108 106.126 55.4292C106.126 56.4477 106.95 57.2734 107.966 57.2734Z" fill="#3F3D56"/>
<path d="M124.214 50.5116C125.23 50.5116 126.054 49.6859 126.054 48.6674C126.054 47.6489 125.23 46.8233 124.214 46.8233C123.198 46.8233 122.375 47.6489 122.375 48.6674C122.375 49.6859 123.198 50.5116 124.214 50.5116Z" fill="#3F3D56"/>
<path d="M91.7562 73.6689L75.4695 61.4386L59.4049 73.5017L59.0374 73.01L75.4695 60.6703L91.6788 72.8425L107.787 55.1704L107.851 55.144L124.099 48.5808L124.329 49.1509L108.145 55.6881L91.7562 73.6689Z" fill="#3F3D56"/>
<path d="M334.645 225H199.23C199.135 225 199.045 224.962 198.978 224.896C198.912 224.829 198.874 224.738 198.874 224.644C198.874 224.549 198.912 224.459 198.978 224.392C199.045 224.325 199.135 224.287 199.23 224.287H334.645C334.739 224.287 334.829 224.325 334.896 224.392C334.963 224.459 335 224.549 335 224.644C335 224.738 334.963 224.829 334.896 224.896C334.829 224.962 334.739 225 334.645 225Z" fill="#CCCCCC"/>
</g>
<defs>
<clipPath id="clip0_147_1">
<rect width="335" height="225" fill="white"/>
</clipPath>
</defs>
</svg>
